<svg width="283" height="147" viewBox="0 0 283 147" fill="none" xmlns="http://www.w3.org/2000/svg">
<path d="M7.72 45.68C9.4 46.592 11.488 47.048 13.984 47.048C16.48 47.048 18.76 46.304 20.824 44.816C22.936 43.28 24.736 41.12 26.224 38.336C29.296 32.432 30.832 24.728 30.832 15.224C30.832 9.176 29.464 6.152 26.728 6.152C25.288 6.152 23.872 6.944 22.48 8.528C21.088 10.112 19.84 12.176 18.736 14.72C16.336 20.528 15.136 26.84 15.136 33.656C15.136 35.048 15.472 36.176 16.144 37.04C16.816 37.856 17.752 38.264 18.952 38.264C18.76 39.752 18.016 41.024 16.72 42.08C15.424 43.136 13.96 43.664 12.328 43.664C8.44 43.664 5.488 42.464 3.472 40.064C1.504 37.616 0.52 34.208 0.52 29.84C0.52 25.424 1.192 21.488 2.536 18.032C3.88 14.576 5.728 11.6 8.08 9.104C10.432 6.56 13.216 4.568 16.432 3.128C19.696 1.688 23.248 0.967996 27.088 0.967996C39.952 0.967996 46.384 7.232 46.384 19.76C46.384 28.784 44.224 36.056 39.904 41.576C35.584 47.144 29.68 50.264 22.192 50.936C26.608 51.896 31.048 52.376 35.512 52.376C39.016 52.376 42.064 51.632 44.656 50.144C45.376 49.712 45.88 49.256 46.168 48.776C47.608 50.072 48.328 51.992 48.328 54.536C48.328 57.128 47.176 59.168 44.872 60.656C42.616 62.144 39.256 62.888 34.792 62.888C30.376 62.888 25.6 61.856 20.464 59.792C15.328 57.728 10.552 54.776 6.136 50.936L7.72 45.68ZM72.961 46.976C70.657 49.952 66.649 51.44 60.937 51.44C57.961 51.44 55.393 50.552 53.233 48.776C51.073 46.952 49.993 44.744 49.993 42.152C49.993 40.712 50.065 39.632 50.209 38.912L55.033 13.28L69.649 11.84L64.393 39.632C64.201 40.688 64.105 41.528 64.105 42.152C64.105 44.936 64.945 46.328 66.625 46.328C68.497 46.328 70.105 45.056 71.449 42.512C71.881 41.696 72.193 40.76 72.385 39.704L77.497 13.28L91.681 11.84L86.353 39.92C86.209 40.64 86.137 41.384 86.137 42.152C86.137 42.92 86.353 43.736 86.785 44.6C87.217 45.416 88.129 45.92 89.521 46.112C89.233 47.264 88.585 48.224 87.577 48.992C85.465 50.624 83.257 51.44 80.953 51.44C78.697 51.44 76.897 51.032 75.553 50.216C74.209 49.4 73.345 48.32 72.961 46.976ZM124.431 37.832C125.631 38.648 126.231 39.968 126.231 41.792C126.231 43.568 125.775 45.032 124.863 46.184C123.951 47.336 122.751 48.296 121.263 49.064C118.191 50.648 114.999 51.44 111.687 51.44C108.375 51.44 105.735 51.08 103.767 50.36C101.847 49.64 100.239 48.608 98.9429 47.264C96.3989 44.72 95.1269 41.12 95.1269 36.464C95.1269 29.216 97.0949 23.384 101.031 18.968C105.255 14.216 111.039 11.84 118.383 11.84C122.943 11.84 126.351 12.8 128.607 14.72C130.287 16.16 131.127 18.056 131.127 20.408C131.127 28.856 123.831 33.08 109.239 33.08C109.047 34.328 108.951 35.48 108.951 36.536C108.951 38.744 109.431 40.28 110.391 41.144C111.399 41.96 112.815 42.368 114.639 42.368C116.463 42.368 118.335 41.96 120.255 41.144C122.223 40.28 123.615 39.176 124.431 37.832ZM109.743 29.984C113.151 29.984 115.839 28.928 117.807 26.816C119.775 24.8 120.759 22.184 120.759 18.968C120.759 17.864 120.543 17.024 120.111 16.448C119.727 15.824 119.127 15.512 118.311 15.512C117.495 15.512 116.727 15.68 116.007 16.016C115.335 16.304 114.639 16.976 113.919 18.032C112.143 20.432 110.751 24.416 109.743 29.984ZM156.127 29.768C157.855 26.696 158.719 23.6 158.719 20.48C158.719 18.416 157.975 17.384 156.487 17.384C155.335 17.384 154.159 18.368 152.959 20.336C151.711 22.304 150.895 24.56 150.511 27.104L146.767 50L131.863 51.44L139.207 13.28L151.087 11.84L149.791 19.112C152.143 14.264 155.959 11.84 161.239 11.84C164.023 11.84 166.159 12.56 167.647 14C169.183 15.44 169.951 17.648 169.951 20.624C169.951 23.552 168.967 25.952 166.999 27.824C165.079 29.696 162.463 30.632 159.151 30.632C157.711 30.632 156.703 30.344 156.127 29.768ZM186.834 51.44C176.274 51.44 170.994 46.472 170.994 36.536C170.994 29.48 172.938 23.672 176.826 19.112C180.954 14.264 186.594 11.84 193.746 11.84C198.93 11.84 202.842 13.04 205.482 15.44C208.122 17.84 209.442 21.56 209.442 26.6C209.442 34.28 207.378 40.352 203.25 44.816C199.218 49.232 193.746 51.44 186.834 51.44ZM188.706 20.12C188.13 21.416 187.602 23.048 187.122 25.016C186.69 26.936 186.186 29.432 185.61 32.504C185.034 35.576 184.746 39.008 184.746 42.8C184.746 44.048 184.938 45.08 185.322 45.896C185.754 46.712 186.522 47.12 187.626 47.12C188.73 47.12 189.618 46.856 190.29 46.328C191.01 45.8 191.634 44.912 192.162 43.664C193.122 41.456 193.986 38.312 194.754 34.232C195.522 30.104 195.93 27.152 195.978 25.376C196.074 23.6 196.122 22.064 196.122 20.768C196.122 19.424 195.93 18.32 195.546 17.456C195.162 16.592 194.418 16.16 193.314 16.16C192.258 16.16 191.37 16.496 190.65 17.168C189.93 17.84 189.282 18.824 188.706 20.12Z" fill="#41414D"/>
<path d="M75.3398 135.44C69.1958 135.44 65.8358 131.072 65.2598 122.336H52.8758C51.9158 124.544 51.0998 126.608 50.4278 128.528L48.5558 134H38.4758L61.1558 86.48H76.6358L79.6598 121.472C80.1398 126.512 81.3398 129.776 83.2598 131.264C81.8678 134.048 79.2278 135.44 75.3398 135.44ZM55.1078 117.08H65.0438L64.1798 98.576V96.632L59.0678 107.936L55.1078 117.08ZM77.4582 142.568C79.9542 142.376 82.1142 140.72 83.9382 137.6C85.3302 135.2 86.4822 131.792 87.3942 127.376L93.2262 97.28L107.698 95.84L101.578 127.376C99.9942 135.392 97.9782 140.72 95.5302 143.36C94.2342 144.8 92.7462 145.76 91.0662 146.24C89.3862 146.72 87.5862 146.96 85.6662 146.96C81.6342 146.96 78.8982 145.496 77.4582 142.568ZM94.3782 87.272C94.3782 85.4 95.1462 83.96 96.6822 82.952C98.2662 81.944 100.186 81.44 102.442 81.44C104.698 81.44 106.498 81.944 107.842 82.952C109.234 83.96 109.93 85.4 109.93 87.272C109.93 89.144 109.162 90.56 107.626 91.52C106.138 92.48 104.266 92.96 102.01 92.96C99.7542 92.96 97.9062 92.48 96.4662 91.52C95.0742 90.56 94.3782 89.144 94.3782 87.272ZM133.43 130.976C131.126 133.952 127.118 135.44 121.406 135.44C118.43 135.44 115.862 134.552 113.702 132.776C111.542 130.952 110.462 128.744 110.462 126.152C110.462 124.712 110.534 123.632 110.678 122.912L115.502 97.28L130.118 95.84L124.862 123.632C124.67 124.688 124.574 125.528 124.574 126.152C124.574 128.936 125.414 130.328 127.094 130.328C128.966 130.328 130.574 129.056 131.918 126.512C132.35 125.696 132.662 124.76 132.854 123.704L137.966 97.28L152.15 95.84L146.822 123.92C146.678 124.64 146.606 125.384 146.606 126.152C146.606 126.92 146.822 127.736 147.254 128.6C147.686 129.416 148.598 129.92 149.99 130.112C149.702 131.264 149.054 132.224 148.046 132.992C145.934 134.624 143.726 135.44 141.422 135.44C139.166 135.44 137.366 135.032 136.022 134.216C134.678 133.4 133.814 132.32 133.43 130.976ZM178.42 95.84C180.148 95.84 181.684 96.032 183.028 96.416C183.076 96.224 183.148 95.864 183.244 95.336L183.604 93.104C183.796 92.144 184.036 90.872 184.324 89.288L185.476 83.6L199.804 82.16L191.812 123.92C191.764 124.208 191.74 124.592 191.74 125.072V126.224C191.74 127.28 192.004 128.216 192.532 129.032C193.06 129.8 193.756 130.184 194.62 130.184C193.66 132.44 191.716 134.048 188.788 135.008C187.78 135.296 186.556 135.44 185.116 135.44C183.724 135.44 182.38 135.056 181.084 134.288C179.788 133.568 178.948 132.584 178.564 131.336C177.796 132.584 176.644 133.568 175.108 134.288C173.572 135.056 171.676 135.44 169.42 135.44C167.212 135.44 165.172 135.152 163.3 134.576C161.476 134 159.988 133.088 158.836 131.84C156.724 129.392 155.668 125.384 155.668 119.816C155.668 112.616 157.78 106.832 162.004 102.464C166.228 98.048 171.7 95.84 178.42 95.84ZM177.916 100.16C176.14 100.16 174.772 101.12 173.812 103.04C172.852 104.96 171.868 108.296 170.86 113.048C169.9 117.8 169.42 122.312 169.42 126.584C169.42 129.512 170.284 130.976 172.012 130.976C173.548 130.976 174.844 130.208 175.9 128.672C177.004 127.136 177.772 125.096 178.204 122.552L182.092 101.456C181.084 100.592 179.692 100.16 177.916 100.16ZM203.836 131.84C202.732 130.592 201.916 128.984 201.388 127.016C200.908 125.048 200.668 122.456 200.668 119.24C200.668 116.024 201.22 112.952 202.324 110.024C203.428 107.096 204.988 104.576 207.004 102.464C211.132 98.048 216.604 95.84 223.42 95.84C225.868 95.84 227.98 96.248 229.756 97.064L242.068 95.84L236.74 123.92C236.596 124.496 236.524 125.312 236.524 126.368C236.524 127.424 236.836 128.288 237.46 128.96C238.132 129.632 238.948 130.016 239.908 130.112C239.428 131.744 238.3 133.04 236.524 134C234.796 134.96 232.948 135.44 230.98 135.44C229.012 135.44 227.356 135.056 226.012 134.288C224.716 133.568 223.876 132.584 223.492 131.336C222.724 132.536 221.524 133.52 219.892 134.288C218.26 135.056 216.34 135.44 214.132 135.44C211.972 135.44 210.004 135.152 208.228 134.576C206.452 134 204.988 133.088 203.836 131.84ZM219.028 102.608C218.5 103.472 217.996 104.648 217.516 106.136C217.036 107.576 216.388 110.264 215.572 114.2C214.804 118.088 214.42 121.424 214.42 124.208C214.42 126.992 214.636 128.792 215.068 129.608C215.5 130.424 216.1 130.832 216.868 130.832C218.404 130.832 219.724 130.112 220.828 128.672C221.98 127.184 222.772 125.144 223.204 122.552L227.02 101.456C226.012 100.592 224.908 100.16 223.708 100.16C222.556 100.16 221.62 100.352 220.9 100.736C220.228 101.12 219.604 101.744 219.028 102.608ZM268.487 113.768C270.215 110.696 271.079 107.6 271.079 104.48C271.079 102.416 270.335 101.384 268.847 101.384C267.695 101.384 266.519 102.368 265.319 104.336C264.071 106.304 263.255 108.56 262.871 111.104L259.127 134L244.223 135.44L251.567 97.28L263.447 95.84L262.151 103.112C264.503 98.264 268.319 95.84 273.599 95.84C276.383 95.84 278.519 96.56 280.007 98C281.543 99.44 282.311 101.648 282.311 104.624C282.311 107.552 281.327 109.952 279.359 111.824C277.439 113.696 274.823 114.632 271.511 114.632C270.071 114.632 269.063 114.344 268.487 113.768Z" fill="#2FB86E"/>
</svg>

